


<svg id="Layer_2" enable-background="new 0 0 64 64" height="512" viewBox="0 0 64 64" width="512" xmlns="http://www.w3.org/2000/svg"><path d="m35 18h-12c-2.209 0-4 1.791-4 4v3h4v10h12v-10h4v-3c0-2.209-1.791-4-4-4z" fill="#757575"/><path d="m37 38c-1.105 0-2-.895-2-2v-11h4v11c0 1.105-.895 2-2 2z" fill="#757575"/><path d="m29 21c1.654 0 3-1.346 3-3h-6c0 1.654 1.346 3 3 3z" fill="#757575"/><path d="m29 20c-1.105 0-2-.895-2-2v-2h4v2c0 1.105-.895 2-2 2z" fill="#757575"/><path d="m23 35v25h5v-19h2v19h5v-25z" fill="#6e83b7"/><path d="m23.5 62h4c.828 0 1.5-.672 1.5-1.5 0-.828-.672-1.5-1.5-1.5h-4c-.828 0-1.5.672-1.5 1.5 0 .828.672 1.5 1.5 1.5z" fill="#757575"/><path d="m30.5 62h4c.828 0 1.5-.672 1.5-1.5 0-.828-.672-1.5-1.5-1.5h-4c-.828 0-1.5.672-1.5 1.5 0 .828.672 1.5 1.5 1.5z" fill="#757575"/><g fill="#757575"><path d="m35 12h-1v-3h1c.552 0 1 .448 1 1v1c0 .552-.448 1-1 1z"/><path d="m23 9h1v3h-1c-.552 0-1-.448-1-1v-1c0-.552.448-1 1-1z"/><path d="m29 17c-3.314 0-6-2.686-6-6v-3h12v3c0 3.314-2.686 6-6 6z"/></g><path d="m23 11 1-2h10l1 2v-3c0-3.314-2.686-6-6-6-3.314 0-6 2.686-6 6z" fill="#757575"/><path d="m35 24h4v1h-4z" fill="#ff7b7b"/><path d="m21 38c1.105 0 2-.895 2-2v-11h-4v11c0 1.105.895 2 2 2z" fill="#757575"/><path d="m19 24h4v1h-4z" fill="#757575"/><path d="m41 2v2h3v4h-2v2h2v4h-3v2h3v4h-2v2h2v4h-3v2h3v4h-2v2h2v26h-3v2h5v-60z" fill="#757575"/></svg>
