<?xml version="1.0" encoding="utf-8"?>
<!-- Generator: Adobe Illustrator 16.0.0, SVG Export Plug-In . SVG Version: 6.00 Build 0)  -->
<!DOCTYPE svg PUBLIC "-//W3C//DTD SVG 1.1//EN" "http://www.w3.org/Graphics/SVG/1.1/DTD/svg11.dtd">
<svg version="1.1" id="Layer_1" xmlns="http://www.w3.org/2000/svg" xmlns:xlink="http://www.w3.org/1999/xlink" x="0px" y="0px"
	 width="66px" height="66px" viewBox="0 0 66 66" enable-background="new 0 0 66 66" xml:space="preserve">
<g>
	<g>
		<g>
			<path fill="#757575" d="M33.002,13.989c-3-5.156-8.279-8.502-14.451-8.502c-9.006,0-16.301,7.074-16.301,15.768
				c0,3.162,0.951,6.215,2.791,8.824l0.021,0.041c0.061,0.062,0.086,0.096,0.141,0.162l27.799,30.23V13.989z"/>
			<path fill="#757575" d="M33.002,13.989c3-5.156,8.283-8.502,14.449-8.502c8.998,0,16.299,7.074,16.299,15.768
				c0,3.162-0.938,6.215-2.783,8.824l-0.016,0.041c-0.066,0.062-0.102,0.096-0.154,0.162l-27.795,30.23V13.989z"/>
		</g>
		<path fill="#757575" d="M20.109,7.675c1.012,1.576-1.426,4.947-5.447,7.529c-4.023,2.582-8.1,3.389-9.117,1.818
			c-1.008-1.582,0.238-4.92,4.258-7.498C13.822,6.944,19.1,6.097,20.109,7.675z"/>
		<path fill="#757575" d="M49.609,7.675c1.012,1.576-1.426,4.947-5.447,7.529c-4.023,2.582-8.1,3.389-9.117,1.818
			c-1.008-1.582,0.238-4.92,4.258-7.498C43.322,6.944,48.6,6.097,49.609,7.675z"/>
		<path fill="#757575" d="M8.48,21.962c0,1.123-0.914,2.035-2.037,2.035c-1.125,0-2.037-0.912-2.037-2.035
			c0-1.127,0.912-2.037,2.037-2.037C7.566,19.925,8.48,20.835,8.48,21.962z"/>
	</g>
	<g>
		<path fill="#757575" d="M24.551,56c-0.504,0-0.93-0.529-0.992-1.029l-3.039-24.2l-1.729,12.841
			c-0.064,0.484-0.469,0.83-0.955,0.848c-0.529,0.011-0.916-0.328-1.014-0.805l-2.043-9.808l-1.422,1.843
			C13.168,35.946,12.869,36,12.551,36h-8.25c-0.553,0-1-0.447-1-1s0.447-1,1-1h7.742l2.451-3.246
			c0.232-0.318,0.631-0.421,1.018-0.339c0.387,0.084,0.688,0.411,0.768,0.798l1.307,6.287l1.973-14.668
			C19.625,22.334,20.049,22,20.551,22h0.004c0.502,0,0.926,0.348,0.988,0.846l2.754,21.855l0.756-9.924
			C25.094,34.256,25.527,34,26.051,34h35.418c0.551,0,1,0.447,1,1s-0.449,1-1,1h-34.49l-1.432,19.075
			C25.51,55.587,25.09,56,24.576,56C24.566,56,24.559,56,24.551,56z"/>
	</g>
</g>
</svg>
