<?xml version="1.0" encoding="utf-8"?>
<!-- Generator: Adobe Illustrator 19.0.0, SVG Export Plug-In . SVG Version: 6.00 Build 0)  -->
<svg version="1.1" id="icono" xmlns="http://www.w3.org/2000/svg" xmlns:xlink="http://www.w3.org/1999/xlink" x="0px" y="0px"
	 viewBox="0 0 500 500" style="enable-background:new 0 0 500 500;" xml:space="preserve">
<style type="text/css">
	.st0{fill:#757575;}
	.st1{fill:#FFFFFF;}
	.st2{font-family:'Arial-BoldMT';}
	.st3{font-size:78.3593px;}
</style>
<circle id="XMLID_1_" class="st0" cx="254.1" cy="243.1" r="223.9"/>
<g id="XMLID_5_">
	<path id="XMLID_34_" class="st1" d="M289.2,312.2c-0.2-0.1-0.5-0.3-0.7-0.4c-4.5-1.7-6.6-4.7-6.7-9.5c0-17.9,0-35.7,0-53.6
		c0-0.8,0-1.7,0-2.8c-4.8,0-9.3-0.3-13.8,0.1c-3.8,0.3-6.5-1.5-7.7-4.3c-1-2.4-1.1-5.8-0.2-8.3c5.1-15.2,10.6-30.4,16-45.5
		c3.1-8.7,6.1-17.3,9.2-26c0.2-0.5,0.5-1,0.4-1.4c-0.2-0.7-0.5-1.8-1-2c-0.6-0.2-1.7,0.3-2.1,0.8c-0.6,0.7-0.8,1.7-1.1,2.5
		c-5.5,14.9-11.1,29.9-16.6,44.8c-1.5,4-7.5,6.6-11.4,5.1c-2.5-1-4.2-6.1-3-9.3c4.4-11.6,8.8-23.2,13.1-34.9c1.8-5,3.2-10.1,5.4-15
		c4.2-9.4,11.7-14.9,21.9-15.5c9.8-0.6,19.7-0.4,29.5,0.2c9.2,0.5,18.8,8.5,20.6,18.3c1,5,3.6,9.7,5.5,14.5
		c4.1,10.2,8.3,20.5,12.5,30.7c1.5,3.8-0.1,7-1.8,10.1c-0.3,0.5-1,0.9-1.6,1c-3.8,0.4-9.1-0.6-11.1-5.8c-4.4-12.1-9.2-24-13.8-36
		c-1.3-3.5-2.7-7-4-10.5c-0.5-1.3-1.3-2.2-2.8-1.6c-1.4,0.6-1.2,1.7-0.7,2.9c8.7,24.1,17.5,48.2,26.1,72.3c1.4,3.9,1.6,8-2,11.1
		c-1,0.8-2.5,1.5-3.8,1.5c-4.5,0.2-8.9,0.1-13.4,0.1c-0.8,0-1.5,0-2.5,0c0,1.1,0,1.9,0,2.8c0,17.1-0.1,34.1,0.1,51.2
		c0.1,5.7-1.6,9.9-7,12.3c-1.4,0-2.9,0-4.3,0c-5.3-2.2-7.2-6.3-7.1-12c0.2-17,0.1-34,0.1-50.9c0-6.5,0-6.5-6.5-6.2
		c-2.7,0.1-2.8,0.2-2.8,3c0,18.3-0.1,36.6,0.1,54.8c0.1,5.5-1.9,9.2-7,11.3C291.7,312.2,290.4,312.2,289.2,312.2z"/>
	<path id="XMLID_33_" class="st1" d="M174.3,312.2c-5.1-1.6-6.5-5.3-6.5-10.3c0.1-46.4,0-92.9,0-139.3c0-0.9,0-1.8,0-2.8
		c-1.5,0-2.8,0-4.4,0c0,0.8,0,1.7,0,2.5c0,17.2,0,34.4,0,51.6c0,2.7-1,4.9-3.4,6.3c-2.5,1.4-5,1.1-7.4-0.3c-1.8-1.1-2.9-2.7-3-4.9
		c0-0.6,0-1.2,0-1.7c0-19,0.1-38,0-57c0-7.5,2.4-13.5,9.7-16.5c3.3-1.4,7-2.5,10.6-2.5c14-0.3,28.1-0.2,42.1-0.1
		c4.6,0.1,9.1,1.3,13,4.1c4.2,2.9,6.7,6.9,6.7,11.9c0.2,19.2,0.3,38.4,0.3,57.6c0,1.3-0.2,2.6-0.6,3.8c-1,3.1-4,5.1-7,4.9
		c-2.9-0.2-5.5-2.8-6-5.9c-0.2-1.4-0.3-2.9-0.3-4.3c0-15.5,0-31.1,0-46.6c0-0.8,0-1.7,0-2.7c-1.5,0-2.7,0-4.4,0c0,0.9,0,1.8,0,2.7
		c0,45.9,0,91.7,0,137.6c0,0.7,0,1.4,0,2.2c0.2,4.9-1.5,8.6-6.6,10c-1.7,0-3.5,0-5.2,0c-3.4-1.1-5.8-3.1-6.3-6.8
		c-0.2-1.2-0.2-2.4-0.2-3.7c0-26.8,0-53.5,0-80.3c0-0.8,0-1.7,0-2.5c-3.2,0-6.1,0-9.3,0c0,0.9,0,1.7,0,2.4c0,4.7,0,9.4,0,14
		c0,22.1,0,44.2,0,66.2c0,6.6-1.2,8.3-6.7,10.6C177.7,312.2,176,312.2,174.3,312.2z"/>
	<path id="XMLID_32_" class="st1" d="M193.3,91c4.6,1.2,8.6,3.3,11.7,7.1c7.1,8.7,4.8,22.2-4.9,27.9c-11.2,6.6-25.2,0.8-28.3-11.8
		c-2.3-9.3,3.5-19.5,12.8-22.3c0.9-0.3,1.7-0.6,2.6-0.9C189.2,91,191.2,91,193.3,91z"/>
	<path id="XMLID_31_" class="st1" d="M307.3,91c4.7,1.3,8.8,3.4,11.8,7.3c4.4,5.8,5.3,12.2,2.6,18.7c-2.7,6.6-7.8,10.6-15.2,11.6
		c-13.7,1.9-25.1-11.9-20-25.3c2.3-6.1,6.8-10,13.1-11.8c0.5-0.2,1.1-0.4,1.6-0.5C303.3,91,305.3,91,307.3,91z"/>
</g>
<text id="XMLID_6_" transform="matrix(1 0 0 1 182.2673 393.5996)" class="st1 st2 st3">IMC</text>
</svg>
