<svg height="512pt" viewBox="-6 0 512 512" width="512pt" xmlns="http://www.w3.org/2000/svg"><path d="m249.511719 166.527344c-45.914063 0-83.265625-37.351563-83.265625-83.261719 0-45.914063 37.351562-83.265625 83.265625-83.265625 45.910156 0 83.261719 37.351562 83.261719 83.265625 0 45.910156-37.351563 83.261719-83.261719 83.261719zm0-136.527344c-29.371094 0-53.265625 23.894531-53.265625 53.265625 0 29.367187 23.894531 53.261719 53.265625 53.261719 29.367187 0 53.261719-23.894532 53.261719-53.261719 0-29.371094-23.894532-53.265625-53.261719-53.265625zm0 0" fill="#00429b"/><path d="m249.511719 0v30c29.367187 0 53.261719 23.894531 53.261719 53.265625 0 29.367187-23.894532 53.261719-53.261719 53.261719v30c45.910156 0 83.261719-37.351563 83.261719-83.261719 0-45.914063-37.351563-83.265625-83.261719-83.265625zm0 0" fill="#002659"/><path d="m427.863281 136.527344h-356.707031l-71.15625 375.472656h499.019531zm0 0" fill="#005fdf"/><path d="m427.863281 136.527344h-178.351562v375.472656h249.507812zm0 0" fill="#00429b"/><path d="m245.117188 264.589844h-34.054688l-47.601562 47.539062v-47.539062h-24.46875v119.890625h24.46875v-40.976563l12.339843-12.03125 37.292969 53.007813h31.585938l-51.40625-69.820313zm0 0" fill="#fff"/><path d="m308.527344 318.535156v22.8125h32.332031v13.148438c-2.601563 1.894531-6.136719 3.753906-10.554687 5.539062-5.375 2.175782-10.960938 3.277344-16.59375 3.277344-6.449219 0-12.621094-1.441406-18.351563-4.285156-5.523437-2.738282-9.625-6.835938-12.53125-12.519532-3-5.863281-4.519531-13.382812-4.519531-22.347656 0-7.261718 1.289062-14.074218 3.816406-20.21875 1.429688-3.414062 3.464844-6.601562 6.050781-9.46875 2.464844-2.734375 5.820313-5 9.964844-6.734375 4.222656-1.761719 9.382813-2.652343 15.34375-2.652343 4.855469 0 9.304687.839843 13.222656 2.496093 3.726563 1.574219 6.585938 3.640625 8.496094 6.136719 2.070313 2.699219 3.863281 6.597656 5.332031 11.589844l1.375 4.667968 22.527344-6.179687-1.214844-4.726563c-2.066406-8.042968-5.175781-14.722656-9.246094-19.851562-4.175781-5.257812-9.945312-9.394531-17.15625-12.285156-6.984374-2.796875-14.859374-4.21875-23.410156-4.21875-11.726562 0-22.28125 2.46875-31.371094 7.339844-9.304687 4.984374-16.519531 12.683593-21.441406 22.882812-4.78125 9.914062-7.207031 20.71875-7.207031 32.125 0 11.546875 2.457031 22.179688 7.300781 31.597656 4.957032 9.636719 12.390625 17.105469 22.101563 22.191406 9.503906 4.980469 20.183593 7.503907 31.742187 7.503907 8.566406 0 17.03125-1.558594 25.160156-4.632813 8.050782-3.042968 15.945313-7.628906 23.46875-13.625l1.867188-1.488281v-48.164063zm0 0" fill="#dad0cb"/><path d="m308.527344 318.535156v22.8125h32.332031v13.148438c-2.601563 1.894531-6.136719 3.753906-10.554687 5.539062-5.375 2.175782-10.960938 3.277344-16.59375 3.277344-6.449219 0-12.621094-1.441406-18.351563-4.285156-5.523437-2.738282-9.625-6.835938-12.53125-12.519532-3-5.863281-4.519531-13.382812-4.519531-22.347656 0-7.261718 1.289062-14.074218 3.816406-20.21875 1.429688-3.414062 3.464844-6.601562 6.050781-9.46875 2.464844-2.734375 5.820313-5 9.964844-6.734375 4.222656-1.761719 9.382813-2.652343 15.34375-2.652343 4.855469 0 9.304687.839843 13.222656 2.496093 3.726563 1.574219 6.585938 3.640625 8.496094 6.136719 2.070313 2.699219 3.863281 6.597656 5.332031 11.589844l1.375 4.667968 22.527344-6.179687-1.214844-4.726563c-2.066406-8.042968-5.175781-14.722656-9.246094-19.851562-4.175781-5.257812-9.945312-9.394531-17.15625-12.285156-6.984374-2.796875-14.859374-4.21875-23.410156-4.21875-11.726562 0-22.28125 2.46875-31.371094 7.339844-9.304687 4.984374-16.519531 12.683593-21.441406 22.882812-4.78125 9.914062-7.207031 20.71875-7.207031 32.125 0 11.546875 2.457031 22.179688 7.300781 31.597656 4.957032 9.636719 12.390625 17.105469 22.101563 22.191406 9.503906 4.980469 20.183593 7.503907 31.742187 7.503907 8.566406 0 17.03125-1.558594 25.160156-4.632813 8.050782-3.042968 15.945313-7.628906 23.46875-13.625l1.867188-1.488281v-48.164063zm0 0" fill="#fff3f3"/></svg>